# xmcd
#
# Track frame offsets:
#	150
#	22792
#	37144
#	52766
#	71878
#	85727
#	99830
#	112023
#	135894
#	173869
#	183878
#	204165
#	216018
#
# Disc length: 3174 seconds
#
# Revision: 0
# Processed by: cddbd v1.5.1PL0 Copyright (c) Steve Scherf et al.
# Submitted via: dBpowerAMP V4.0
#
DISCID=a00c640d
DTITLE=South Austin Jug Band - Dark and Weary World
DYEAR=2005
DGENRE=Country
TTITLE0=Dark and Weary World
TTITLE1=Ghost
TTITLE2=Karma
TTITLE3=Overdrivin The Mic
TTITLE4=Raleigh and Spencer
TTITLE5=Coon Ass
TTITLE6=She Don't Care About Me
TTITLE7=Weather On The Wood
TTITLE8=Summer Sunset
TTITLE9=Delirium
TTITLE10=Lady Be Good
TTITLE11=No Baby Swings Like Mine
TTITLE12=Bluegrass In The Backwoods
EXTD=
EXTT0=
EXTT1=
EXTT2=
EXTT3=
EXTT4=
EXTT5=
EXTT6=
EXTT7=
EXTT8=
EXTT9=
EXTT10=
EXTT11=
EXTT12=
PLAYORDER=
